# xmcd
#
# Track frame offsets: 
#        150
#        22287
#        56370
#        79867
#        114840
#        144600
#        170655
#        191677
#        208345
#        239655
#
# Disc length: 3474 seconds
#
# Revision: 1
# Processed by: cddbd v1.5.2PL0 Copyright (c) Steve Scherf et al.
# Submitted via: ExactAudioCopy v0.99pb5
#
DISCID=940d900a
DTITLE=Kaskade - Here and Now
DYEAR=2005
DGENRE=House
TTITLE0=It's You, It's Me
TTITLE1=In This Life
TTITLE2=Samba Love
TTITLE3=Everything (Kaskade's Big Room Mix)
TTITLE4=Brighter Day (Kaskade Original)
TTITLE5=I Feel Like
TTITLE6=Peace On Earth
TTITLE7=I Like The Way
TTITLE8=Meditation To The Groove
TTITLE9=Maybe
EXTD=YEAR: 2005 ID3G: 35
EXTT0=
EXTT1=
EXTT2=
EXTT3=
EXTT4=
EXTT5=
EXTT6=
EXTT7=
EXTT8=
EXTT9=
PLAYORDER=
